<svg xmlns="http://www.w3.org/2000/svg" xmlns:xlink="http://www.w3.org/1999/xlink" width="2000" zoomAndPan="magnify" viewBox="0 0 1500 1499.999933" height="2000" preserveAspectRatio="xMidYMid meet" version="1.0"><defs><clipPath id="8631782b05"><path d="M 28.234375 1202 L 197 1202 L 197 1436 L 28.234375 1436 Z M 28.234375 1202 " clip-rule="nonzero"/></clipPath><clipPath id="793551865f"><path d="M 1303 674 L 1471.984375 674 L 1471.984375 1436 L 1303 1436 Z M 1303 674 " clip-rule="nonzero"/></clipPath></defs><g clip-path="url(#8631782b05)"><path fill="#fffefe" d="M 27.898438 1202.566406 L 196.140625 1202.566406 L 196.140625 1435.539062 L 27.898438 1435.539062 Z M 27.898438 1202.566406 " fill-opacity="1" fill-rule="nonzero"/></g><path fill="#fffefe" d="M 346.722656 1048.335938 L 514.960938 1048.335938 L 514.960938 1435.507812 L 346.722656 1435.507812 Z M 346.722656 1048.335938 " fill-opacity="1" fill-rule="nonzero"/><path fill="#fffefe" d="M 665.511719 955.800781 L 833.753906 955.800781 L 833.753906 1435.507812 L 665.511719 1435.507812 Z M 665.511719 955.800781 " fill-opacity="1" fill-rule="nonzero"/><path fill="#fffefe" d="M 984.335938 834.816406 L 1152.574219 834.816406 L 1152.574219 1435.539062 L 984.335938 1435.539062 Z M 984.335938 834.816406 " fill-opacity="1" fill-rule="nonzero"/><g clip-path="url(#793551865f)"><path fill="#fffefe" d="M 1303.15625 674.570312 L 1471.394531 674.570312 L 1471.394531 1435.539062 L 1303.15625 1435.539062 Z M 1303.15625 674.570312 " fill-opacity="1" fill-rule="nonzero"/></g><path fill="#fffefe" d="M 1009.011719 116.152344 L 1078.636719 208.996094 C 1082.828125 214.585938 1082.675781 222.304688 1078.242188 227.714844 C 1072.800781 234.371094 580.359375 829.679688 43.335938 1009.347656 C 273.421875 972.546875 705.234375 831.597656 1151.359375 309.648438 C 1153.972656 306.578125 1157.742188 304.664062 1161.78125 304.359375 C 1166.066406 304.175781 1169.835938 305.390625 1172.875 308.066406 L 1269.546875 392.125 L 1318.808594 67.53125 L 1009.011719 116.183594 Z M 1009.011719 116.152344 " fill-opacity="1" fill-rule="nonzero"/></svg>