<svg xmlns="http://www.w3.org/2000/svg" xmlns:xlink="http://www.w3.org/1999/xlink" width="2000" zoomAndPan="magnify" viewBox="0 0 1500 1499.999933" height="2000" preserveAspectRatio="xMidYMid meet" version="1.0"><path fill="#fffefe" d="M 298.191406 868.617188 C 396.8125 868.617188 476.652344 788.621094 476.652344 690.152344 C 476.652344 591.535156 396.8125 511.691406 298.191406 511.691406 C 199.722656 511.691406 119.730469 591.6875 119.730469 690.152344 C 119.730469 788.773438 199.570312 868.617188 298.191406 868.617188 Z M 298.191406 868.617188 " fill-opacity="1" fill-rule="nonzero"/><path fill="#fffefe" d="M 497.261719 971.664062 C 462.609375 937.464844 415.894531 917.316406 364.601562 917.316406 L 231.9375 917.316406 C 136.21875 917.316406 55.152344 988.761719 43.550781 1084.632812 L 25.078125 1238.820312 C 22.789062 1258.667969 35.460938 1277.445312 55.152344 1282.023438 C 132.09375 1298.664062 213.464844 1306.757812 298.039062 1306.757812 C 324.144531 1306.757812 350.25 1306.296875 375.4375 1304.007812 L 392.996094 1161.878906 C 402.308594 1084.9375 440.929688 1017.917969 497.261719 971.664062 Z M 497.261719 971.664062 " fill-opacity="1" fill-rule="nonzero"/><path fill="#fffefe" d="M 1023.335938 690.152344 C 1023.335938 788.621094 1103.179688 868.617188 1201.800781 868.617188 C 1300.417969 868.617188 1380.261719 788.621094 1380.261719 690.152344 C 1380.261719 591.535156 1300.417969 511.691406 1201.800781 511.691406 C 1103.179688 511.691406 1023.335938 591.535156 1023.335938 690.152344 Z M 1023.335938 690.152344 " fill-opacity="1" fill-rule="nonzero"/><path fill="#fffefe" d="M 1456.441406 1084.480469 C 1445.144531 988.761719 1363.773438 917.160156 1268.511719 917.160156 L 1135.390625 917.160156 C 1084.097656 917.160156 1037.382812 937.464844 1003.1875 971.511719 C 1059.367188 1017.765625 1098.140625 1084.785156 1106.996094 1161.726562 L 1124.554688 1303.855469 C 1149.742188 1306.144531 1175.847656 1306.601562 1201.953125 1306.601562 C 1286.527344 1306.601562 1367.898438 1298.511719 1444.839844 1281.871094 C 1464.683594 1277.445312 1477.203125 1258.515625 1474.914062 1238.667969 Z M 1456.441406 1084.480469 " fill-opacity="1" fill-rule="nonzero"/><path fill="#fffefe" d="M 816.175781 1007.386719 L 683.664062 1007.386719 C 587.792969 1007.386719 507.035156 1079.136719 495.429688 1174.398438 L 476.804688 1328.738281 C 474.363281 1348.738281 487.339844 1367.667969 507.035156 1371.941406 C 583.671875 1388.277344 665.191406 1396.980469 749.917969 1396.980469 C 834.648438 1396.980469 916.167969 1388.277344 992.652344 1371.941406 C 1012.347656 1367.667969 1025.320312 1348.738281 1022.878906 1328.738281 L 1004.253906 1174.398438 C 993.109375 1078.984375 912.199219 1007.386719 816.175781 1007.386719 Z M 816.175781 1007.386719 " fill-opacity="1" fill-rule="nonzero"/><path fill="#fffefe" d="M 571.609375 780.222656 C 571.609375 878.84375 651.453125 958.6875 750.070312 958.6875 C 848.691406 958.6875 928.535156 878.691406 928.535156 780.222656 C 928.535156 681.757812 848.539062 601.761719 750.070312 601.761719 C 651.453125 601.761719 571.609375 681.605469 571.609375 780.222656 Z M 571.609375 780.222656 " fill-opacity="1" fill-rule="nonzero"/><path fill="#fffefe" d="M 978.148438 451.082031 L 978.148438 336.738281 L 807.167969 387.578125 C 787.933594 393.226562 768.238281 396.125 748.085938 396.125 C 728.242188 396.125 708.242188 393.226562 689.007812 387.578125 L 523.0625 338.265625 L 523.0625 451.082031 C 523.0625 471.847656 536.496094 489.707031 556.039062 495.660156 L 628.554688 517.035156 C 708.089844 540.542969 792.96875 540.542969 872.355469 517.035156 L 944.5625 495.660156 C 964.714844 489.707031 978.148438 471.847656 978.148438 451.082031 Z M 978.148438 451.082031 " fill-opacity="1" fill-rule="nonzero"/><path fill="#fffefe" d="M 412.230469 238.730469 L 703.511719 325.289062 C 732.667969 333.992188 763.660156 333.992188 792.816406 325.289062 L 1042.421875 251.097656 L 1042.421875 316.894531 C 1037.382812 319.792969 1033.871094 324.984375 1033.871094 331.089844 L 1033.871094 349.257812 C 1033.871094 355.824219 1037.839844 361.472656 1043.488281 364.066406 L 1027.765625 400.550781 C 1025.628906 405.285156 1028.832031 410.78125 1034.023438 411.390625 L 1049.902344 413.222656 C 1053.105469 413.527344 1056.464844 413.527344 1059.671875 413.222656 L 1075.546875 411.390625 C 1080.738281 410.78125 1083.945312 405.285156 1081.808594 400.550781 L 1066.082031 364.066406 C 1071.730469 361.472656 1075.699219 355.824219 1075.699219 349.257812 L 1075.699219 331.089844 C 1075.699219 324.984375 1072.191406 319.792969 1067.152344 316.894531 L 1067.152344 243.617188 L 1083.792969 238.730469 C 1103.945312 232.777344 1103.945312 204.230469 1083.792969 198.273438 L 792.96875 111.714844 C 763.8125 103.015625 732.820312 103.015625 703.664062 111.714844 L 412.382812 198.273438 C 392.078125 204.230469 392.078125 232.777344 412.230469 238.730469 Z M 412.230469 238.730469 " fill-opacity="1" fill-rule="nonzero"/></svg>