<svg xmlns="http://www.w3.org/2000/svg" xmlns:xlink="http://www.w3.org/1999/xlink" width="2000" zoomAndPan="magnify" viewBox="0 0 1500 1499.999933" height="2000" preserveAspectRatio="xMidYMid meet" version="1.0"><defs><clipPath id="b067b14887"><path d="M 438 41.144531 L 1128 41.144531 L 1128 763 L 438 763 Z M 438 41.144531 " clip-rule="nonzero"/></clipPath><clipPath id="877611ac73"><path d="M 24.828125 585 L 1475 585 L 1475 1458.644531 L 24.828125 1458.644531 Z M 24.828125 585 " clip-rule="nonzero"/></clipPath></defs><g clip-path="url(#b067b14887)"><path fill="#ffffff" d="M 1127.46875 402.304688 C 1127.46875 408.207031 1127.332031 414.101562 1127.054688 419.996094 C 1126.777344 425.890625 1126.363281 431.773438 1125.808594 437.648438 C 1125.257812 443.519531 1124.566406 449.375 1123.738281 455.210938 C 1122.914062 461.046875 1121.949219 466.859375 1120.847656 472.648438 C 1119.75 478.4375 1118.515625 484.191406 1117.144531 489.917969 C 1115.773438 495.640625 1114.273438 501.324219 1112.636719 506.972656 C 1111 512.621094 1109.230469 518.222656 1107.332031 523.777344 C 1105.433594 529.332031 1103.402344 534.835938 1101.246094 540.289062 C 1099.089844 545.742188 1096.804688 551.132812 1094.394531 556.46875 C 1091.984375 561.804688 1089.449219 567.074219 1086.792969 572.277344 C 1084.136719 577.480469 1081.359375 582.613281 1078.460938 587.675781 C 1075.5625 592.738281 1072.546875 597.71875 1069.414062 602.628906 C 1066.28125 607.535156 1063.035156 612.355469 1059.679688 617.097656 C 1056.320312 621.835938 1052.851562 626.488281 1049.277344 631.046875 C 1045.699219 635.609375 1042.019531 640.078125 1038.234375 644.449219 C 1034.445312 648.820312 1030.558594 653.09375 1026.574219 657.265625 C 1022.585938 661.441406 1018.507812 665.507812 1014.328125 669.46875 C 1010.152344 673.433594 1005.882812 677.285156 1001.527344 681.03125 C 997.167969 684.773438 992.726562 688.402344 988.195312 691.917969 C 983.667969 695.433594 979.0625 698.832031 974.375 702.109375 C 969.6875 705.386719 964.925781 708.542969 960.089844 711.578125 C 955.253906 714.609375 950.351562 717.519531 945.378906 720.300781 C 940.40625 723.082031 935.371094 725.734375 930.277344 728.257812 C 925.179688 730.78125 920.027344 733.171875 914.816406 735.429688 C 909.609375 737.6875 904.351562 739.808594 899.042969 741.796875 C 893.734375 743.785156 888.382812 745.636719 882.988281 747.351562 C 877.59375 749.0625 872.164062 750.636719 866.695312 752.070312 C 861.226562 753.503906 855.726562 754.796875 850.195312 755.949219 C 844.667969 757.097656 839.113281 758.109375 833.539062 758.972656 C 827.960938 759.839844 822.367188 760.5625 816.757812 761.140625 C 811.148438 761.71875 805.527344 762.152344 799.894531 762.441406 C 794.265625 762.730469 788.632812 762.875 782.992188 762.875 C 777.355469 762.875 771.722656 762.730469 766.089844 762.441406 C 760.460938 762.152344 754.839844 761.71875 749.230469 761.140625 C 743.617188 760.5625 738.023438 759.839844 732.449219 758.972656 C 726.871094 758.109375 721.320312 757.097656 715.789062 755.949219 C 710.261719 754.796875 704.761719 753.503906 699.292969 752.070312 C 693.824219 750.636719 688.394531 749.0625 682.996094 747.351562 C 677.601562 745.636719 672.25 743.785156 666.945312 741.796875 C 661.636719 739.808594 656.378906 737.6875 651.167969 735.429688 C 645.960938 733.171875 640.808594 730.78125 635.710938 728.257812 C 630.613281 725.734375 625.582031 723.082031 620.609375 720.300781 C 615.636719 717.519531 610.734375 714.609375 605.898438 711.578125 C 601.0625 708.542969 596.300781 705.386719 591.613281 702.109375 C 586.925781 698.832031 582.316406 695.433594 577.789062 691.917969 C 573.261719 688.402344 568.820312 684.773438 564.460938 681.03125 C 560.101562 677.285156 555.835938 673.433594 551.660156 669.46875 C 547.480469 665.507812 543.398438 661.441406 539.414062 657.265625 C 535.425781 653.09375 531.539062 648.820312 527.753906 644.449219 C 523.96875 640.078125 520.289062 635.609375 516.710938 631.046875 C 513.132812 626.488281 509.667969 621.835938 506.308594 617.097656 C 502.949219 612.355469 499.707031 607.535156 496.574219 602.628906 C 493.441406 597.71875 490.425781 592.738281 487.527344 587.675781 C 484.628906 582.613281 481.851562 577.480469 479.195312 572.277344 C 476.535156 567.074219 474.003906 561.804688 471.59375 556.46875 C 469.179688 551.132812 466.898438 545.742188 464.738281 540.289062 C 462.582031 534.835938 460.554688 529.332031 458.65625 523.777344 C 456.757812 518.222656 454.988281 512.621094 453.351562 506.972656 C 451.714844 501.324219 450.210938 495.640625 448.84375 489.917969 C 447.472656 484.191406 446.238281 478.4375 445.136719 472.648438 C 444.039062 466.859375 443.074219 461.046875 442.246094 455.210938 C 441.417969 449.375 440.730469 443.519531 440.175781 437.648438 C 439.625 431.773438 439.210938 425.890625 438.933594 419.996094 C 438.65625 414.101562 438.519531 408.207031 438.519531 402.304688 C 438.519531 396.402344 438.65625 390.503906 438.933594 384.613281 C 439.210938 378.71875 439.625 372.835938 440.175781 366.960938 C 440.730469 361.089844 441.417969 355.234375 442.246094 349.398438 C 443.074219 343.558594 444.039062 337.746094 445.136719 331.960938 C 446.238281 326.171875 447.472656 320.417969 448.84375 314.691406 C 450.210938 308.96875 451.714844 303.28125 453.351562 297.636719 C 454.988281 291.988281 456.757812 286.386719 458.65625 280.832031 C 460.554688 275.273438 462.582031 269.769531 464.738281 264.320312 C 466.898438 258.867188 469.179688 253.472656 471.59375 248.140625 C 474.003906 242.804688 476.535156 237.535156 479.195312 232.332031 C 481.851562 227.128906 484.628906 221.996094 487.527344 216.933594 C 490.425781 211.871094 493.441406 206.886719 496.574219 201.980469 C 499.707031 197.074219 502.949219 192.25 506.308594 187.511719 C 509.667969 182.773438 513.132812 178.121094 516.710938 173.558594 C 520.289062 169 523.96875 164.53125 527.753906 160.160156 C 531.539062 155.785156 535.425781 151.515625 539.414062 147.339844 C 543.398438 143.167969 547.480469 139.101562 551.660156 135.136719 C 555.835938 131.175781 560.101562 127.320312 564.460938 123.578125 C 568.820312 119.835938 573.261719 116.207031 577.789062 112.691406 C 582.316406 109.175781 586.925781 105.777344 591.613281 102.5 C 596.300781 99.222656 601.0625 96.066406 605.898438 93.03125 C 610.734375 89.996094 615.636719 87.089844 620.609375 84.308594 C 625.582031 81.527344 630.613281 78.875 635.710938 76.351562 C 640.808594 73.828125 645.960938 71.4375 651.167969 69.179688 C 656.378906 66.921875 661.636719 64.796875 666.945312 62.808594 C 672.25 60.820312 677.601562 58.972656 682.996094 57.257812 C 688.394531 55.546875 693.824219 53.972656 699.292969 52.539062 C 704.761719 51.105469 710.261719 49.8125 715.789062 48.660156 C 721.320312 47.507812 726.871094 46.5 732.449219 45.636719 C 738.023438 44.769531 743.617188 44.046875 749.230469 43.46875 C 754.839844 42.890625 760.460938 42.457031 766.089844 42.167969 C 771.722656 41.878906 777.355469 41.730469 782.992188 41.730469 C 788.632812 41.730469 794.265625 41.878906 799.894531 42.167969 C 805.527344 42.457031 811.148438 42.890625 816.757812 43.46875 C 822.367188 44.046875 827.960938 44.769531 833.539062 45.636719 C 839.113281 46.5 844.667969 47.507812 850.195312 48.660156 C 855.726562 49.8125 861.226562 51.105469 866.695312 52.539062 C 872.164062 53.972656 877.59375 55.546875 882.988281 57.257812 C 888.382812 58.972656 893.734375 60.820312 899.042969 62.808594 C 904.351562 64.796875 909.609375 66.921875 914.816406 69.179688 C 920.027344 71.4375 925.179688 73.828125 930.273438 76.351562 C 935.371094 78.875 940.40625 81.527344 945.378906 84.308594 C 950.351562 87.089844 955.253906 89.996094 960.089844 93.03125 C 964.925781 96.066406 969.6875 99.222656 974.375 102.5 C 979.0625 105.777344 983.667969 109.175781 988.195312 112.691406 C 992.726562 116.207031 997.167969 119.835938 1001.527344 123.578125 C 1005.882812 127.320312 1010.152344 131.175781 1014.328125 135.136719 C 1018.507812 139.101562 1022.585938 143.167969 1026.574219 147.339844 C 1030.558594 151.515625 1034.445312 155.785156 1038.234375 160.160156 C 1042.019531 164.53125 1045.699219 169 1049.277344 173.558594 C 1052.851562 178.121094 1056.320312 182.773438 1059.679688 187.511719 C 1063.035156 192.25 1066.28125 197.074219 1069.414062 201.980469 C 1072.546875 206.886719 1075.5625 211.871094 1078.460938 216.933594 C 1081.359375 221.996094 1084.136719 227.128906 1086.792969 232.332031 C 1089.449219 237.535156 1091.984375 242.804688 1094.394531 248.140625 C 1096.804688 253.472656 1099.089844 258.867188 1101.246094 264.320312 C 1103.402344 269.769531 1105.433594 275.273438 1107.332031 280.832031 C 1109.230469 286.386719 1111 291.988281 1112.636719 297.636719 C 1114.273438 303.28125 1115.773438 308.96875 1117.144531 314.691406 C 1118.515625 320.417969 1119.75 326.171875 1120.847656 331.960938 C 1121.949219 337.746094 1122.914062 343.558594 1123.738281 349.398438 C 1124.566406 355.234375 1125.257812 361.089844 1125.808594 366.960938 C 1126.363281 372.835938 1126.777344 378.71875 1127.054688 384.613281 C 1127.332031 390.503906 1127.46875 396.402344 1127.46875 402.304688 Z M 1127.46875 402.304688 " fill-opacity="1" fill-rule="nonzero"/></g><path fill="#ffffff" d="M 1434.921875 1297.296875 C 1434.921875 1294.074219 1433.3125 1290.855469 1433.3125 1287.636719 C 1428.480469 1265.101562 1417.214844 1245.785156 1402.726562 1229.6875 C 1385.019531 1211.980469 1364.09375 1197.492188 1338.339844 1191.054688 C 1328.679688 1187.835938 1317.414062 1186.226562 1306.144531 1186.226562 C 1233.707031 1186.226562 1174.148438 1245.785156 1174.148438 1318.222656 C 1174.148438 1390.65625 1233.707031 1450.214844 1306.144531 1450.214844 C 1378.582031 1450.214844 1438.140625 1390.65625 1438.140625 1318.222656 C 1438.140625 1311.78125 1436.53125 1305.34375 1434.921875 1297.296875 Z M 1434.921875 1297.296875 " fill-opacity="1" fill-rule="nonzero"/><path fill="#ffffff" d="M 361.253906 1187.835938 C 361.253906 1115.398438 301.695312 1055.839844 229.257812 1055.839844 C 224.429688 1055.839844 219.601562 1055.839844 214.769531 1055.839844 C 213.160156 1055.839844 213.160156 1055.839844 211.550781 1055.839844 C 208.332031 1055.839844 205.113281 1057.449219 201.894531 1057.449219 C 200.285156 1057.449219 200.285156 1057.449219 198.675781 1059.058594 C 195.453125 1059.058594 192.234375 1060.667969 189.015625 1062.28125 C 187.40625 1062.28125 187.40625 1062.28125 187.40625 1063.890625 C 184.1875 1065.5 180.96875 1067.109375 177.746094 1067.109375 C 177.746094 1067.109375 176.136719 1067.109375 176.136719 1067.109375 C 172.917969 1068.71875 169.699219 1070.328125 164.871094 1071.9375 C 161.652344 1073.546875 158.429688 1076.765625 153.601562 1078.375 C 147.164062 1083.207031 139.117188 1089.644531 134.285156 1096.082031 C 111.75 1120.226562 98.871094 1150.8125 98.871094 1186.226562 C 98.871094 1258.664062 158.429688 1318.222656 230.867188 1318.222656 C 303.304688 1318.222656 361.253906 1260.273438 361.253906 1187.835938 Z M 361.253906 1187.835938 " fill-opacity="1" fill-rule="nonzero"/><g clip-path="url(#877611ac73)"><path fill="#ffffff" d="M 1473.554688 1215.199219 C 1433.3125 891.652344 1013.179688 787.023438 963.28125 775.753906 L 787.824219 914.1875 L 612.367188 775.753906 C 575.34375 783.800781 340.328125 841.75 201.894531 999.5 L 84.386719 585.808594 L 24.828125 601.90625 L 145.554688 1033.304688 C 169.699219 1020.425781 198.675781 1012.378906 229.257812 1012.378906 C 325.839844 1012.378906 404.714844 1091.253906 404.714844 1187.835938 C 404.714844 1276.367188 338.71875 1348.804688 255.011719 1361.683594 C 327.449219 1392.265625 427.25 1422.851562 559.246094 1440.558594 L 559.246094 1022.039062 C 559.246094 1022.039062 776.554688 1022.039062 926.257812 1120.230469 L 927.867188 1458.265625 L 971.328125 1458.265625 L 969.71875 1120.230469 C 1119.421875 1022.039062 1336.730469 1022.039062 1336.730469 1022.039062 L 1336.730469 1147.59375 C 1396.289062 1158.859375 1444.578125 1199.105469 1467.113281 1253.832031 C 1473.554688 1240.957031 1475.164062 1228.078125 1473.554688 1215.199219 Z M 1473.554688 1215.199219 " fill-opacity="1" fill-rule="nonzero"/></g></svg>